<?xml version="1.0" encoding="utf-8"?>
<!-- Generator: Adobe Illustrator 23.0.1, SVG Export Plug-In . SVG Version: 6.00 Build 0)  -->
<svg version="1.1" id="Camada_1" xmlns="http://www.w3.org/2000/svg" xmlns:xlink="http://www.w3.org/1999/xlink" x="0px" y="0px"
	 viewBox="0 0 20 20" style="enable-background:new 0 0 20 20;" xml:space="preserve">
<style type="text/css">
	.st0{fill:none;stroke:#8257E5;stroke-width:2;stroke-linecap:round;stroke-linejoin:round;}
</style>
<path class="st0" d="M16.7,7.5H9.2c-0.9,0-1.7,0.7-1.7,1.7v7.5c0,0.9,0.7,1.7,1.7,1.7h7.5c0.9,0,1.7-0.7,1.7-1.7V9.2
	C18.3,8.2,17.6,7.5,16.7,7.5z"/>
<path class="st0" d="M4.2,12.5H3.3c-0.4,0-0.9-0.2-1.2-0.5c-0.3-0.3-0.5-0.7-0.5-1.2V3.3c0-0.4,0.2-0.9,0.5-1.2s0.7-0.5,1.2-0.5h7.5
	c0.4,0,0.9,0.2,1.2,0.5c0.3,0.3,0.5,0.7,0.5,1.2v0.8"/>
</svg>
