<?xml version="1.0" encoding="utf-8"?>
<!-- Generator: Adobe Illustrator 23.0.1, SVG Export Plug-In . SVG Version: 6.00 Build 0)  -->
<svg version="1.1" id="Camada_1" xmlns="http://www.w3.org/2000/svg" xmlns:xlink="http://www.w3.org/1999/xlink" x="0px" y="0px"
	 viewBox="0 0 167 44" style="enable-background:new 0 0 167 44;" xml:space="preserve">
<style type="text/css">
	.st0{fill:#0D114F;}
	.st1{fill:#8257E5;}
	.st2{fill:#FAFAFA;}
</style>
<path class="st0" d="M56.4,30V14.8h4.8V18c0.3-1.1,0.8-1.9,1.5-2.5c0.8-0.6,1.7-0.9,2.7-0.9c0.5,0,0.9,0,1.3,0.1v4.5
	c-0.6-0.1-1.1-0.1-1.5-0.1c-2.7,0-4,1.7-4,5.1V30H56.4z M80.7,28.2c-1.5,1.5-3.6,2.3-6.1,2.3c-2.6,0-4.6-0.8-6.2-2.3
	c-1.5-1.5-2.3-3.5-2.3-5.8s0.8-4.3,2.3-5.8c1.5-1.5,3.6-2.3,6.2-2.3c2.6,0,4.6,0.8,6.1,2.3c1.5,1.5,2.3,3.4,2.3,5.8
	S82.2,26.7,80.7,28.2z M74.6,26.4c1.1,0,2-0.4,2.7-1.1c0.7-0.7,1-1.7,1-2.9s-0.3-2.1-1-2.9c-0.7-0.7-1.5-1.1-2.7-1.1
	c-1.1,0-2,0.4-2.7,1.1c-0.6,0.7-0.9,1.7-0.9,2.9s0.3,2.1,0.9,2.9C72.5,26,73.4,26.4,74.6,26.4z M91.3,30.5c-2.5,0-4.5-0.7-5.9-2.2
	c-1.5-1.5-2.2-3.5-2.2-5.9c0-2.4,0.7-4.4,2.2-5.8c1.5-1.5,3.5-2.2,5.9-2.2c2.3,0,4.1,0.6,5.5,1.7c1.4,1.1,2.2,2.6,2.4,4.5h-4.8
	c-0.4-1.4-1.4-2.1-3-2.1c-1.1,0-1.9,0.3-2.5,1c-0.6,0.7-0.9,1.7-0.9,2.9c0,1.3,0.3,2.2,0.9,2.9c0.6,0.7,1.4,1,2.5,1
	c1.7,0,2.7-0.7,3-2h4.8c-0.2,1.9-1,3.4-2.4,4.5C95.4,29.9,93.6,30.5,91.3,30.5z M115.7,30h-5.9l-4.8-6.6V30h-4.8V7.9h4.8v13.2l5-6.3
	h5.7l-6.1,7.2L115.7,30z M129.7,21.6c0,0.6,0,1.3-0.1,2.1h-11.2c0,1,0.4,1.8,1,2.3c0.6,0.5,1.5,0.8,2.6,0.8c1.5,0,2.4-0.5,2.8-1.4
	h4.7c-0.2,1.5-1.1,2.7-2.5,3.7c-1.4,0.9-3.1,1.4-5.1,1.4c-2.6,0-4.6-0.7-6.1-2.1c-1.5-1.4-2.2-3.4-2.2-5.9c0-2.5,0.7-4.4,2.2-5.9
	c1.5-1.5,3.5-2.2,6-2.2c2.4,0,4.3,0.7,5.7,2C128.9,17.7,129.7,19.5,129.7,21.6z M118.3,20.7h6.6c0-1-0.3-1.8-0.9-2.3
	c-0.5-0.5-1.3-0.8-2.4-0.8s-1.9,0.3-2.5,0.9C118.6,19,118.3,19.8,118.3,20.7z M138.5,26.2c0.7,0,1.2,0,1.7-0.1V30
	c-0.9,0.2-2,0.3-3.2,0.3c-0.5,0-1,0-1.5-0.1c-0.4-0.1-0.9-0.2-1.4-0.4c-0.5-0.2-1-0.5-1.3-0.9c-0.3-0.4-0.6-0.9-0.9-1.6
	c-0.2-0.7-0.3-1.6-0.3-2.5v-6.1h-2.4v-3.8h2.4v-4.5h4.8v4.5h3.4v3.8h-3.4v5c0,1,0.2,1.7,0.5,2.1C137.3,26.1,137.8,26.2,138.5,26.2z
	 M159.8,14.8h4.8v21.5h-4.8v-7.6h0v-0.8c-0.4,0.8-1.1,1.4-2,1.9c-0.9,0.5-1.8,0.7-2.9,0.7c-2.2,0-4-0.7-5.2-2.2
	c-1.3-1.5-1.9-3.4-1.9-5.8c0-2.3,0.7-4.2,2-5.7c1.3-1.5,3.1-2.3,5.2-2.3c1.1,0,2,0.2,2.9,0.7c0.8,0.5,1.5,1.1,1.9,1.9V14.8z
	 M156.4,26.4c1.2,0,2.1-0.4,2.7-1.1c0.6-0.8,0.9-1.7,0.9-2.9c0-1.1-0.3-2.1-0.9-2.8c-0.6-0.8-1.5-1.1-2.7-1.1c-1.1,0-2,0.4-2.7,1.1
	c-0.7,0.7-1,1.7-1,2.9s0.3,2.1,1,2.9C154.4,26,155.3,26.4,156.4,26.4z"/>
<path class="st1" d="M146.2,29.4c-0.6,0.6-1.3,0.9-2.2,0.9c-0.9,0-1.6-0.3-2.2-0.9c-0.6-0.6-0.9-1.3-0.9-2.2c0-0.9,0.3-1.6,0.9-2.2
	c0.6-0.6,1.4-0.9,2.2-0.9c0.9,0,1.6,0.3,2.2,0.9c0.6,0.6,0.9,1.3,0.9,2.2C147.1,28.1,146.8,28.8,146.2,29.4z"/>
<path class="st1" d="M7.9,0h28.1c4.4,0,7.9,3.5,7.9,7.9v28.1c0,4.4-3.5,7.9-7.9,7.9H7.9c-4.4,0-7.9-3.5-7.9-7.9V7.9
	C0,3.5,3.5,0,7.9,0z"/>
<g>
	<path class="st2" d="M33.3,32.4h-3.9c-0.2,0-0.3-0.1-0.3-0.3c0-0.1,0-0.1,0-0.1c-0.2-2-2.4-3.8-4.5-3.5c-1.5,0.2-2.7,1.3-4.2,1.5
		c-1,0.1-1.9,0.1-2.9-0.1c-0.9-0.2-1.7-0.5-2.5-0.9c-1.8-1-2.8-2.1-3.7-3.7c-0.5-0.9-0.9-1.9-1-3c-0.1-0.9-0.1-1.6,0-2.5
		c0.1-1.3,0.6-2.6,1.2-3.7c1-1.6,2-2.5,3.7-3.5c0.7-0.4,1.5-0.7,2.3-0.8c2-0.4,3.3-0.3,5.2,0.3c1.1,0.3,2.3,1.1,3.3,2
		c2.2,2.1,2.4,5.3,2.4,8.3c0,0.3-0.3,0.5-0.5,0.4c-1.4-0.2-2.3-0.3-3.7-0.1c-0.4,0.1-0.6-0.3-0.6-0.7c0-0.2,0.1-0.3,0.1-0.4
		c0.4-2.3-1.2-5-3.6-5.2c-1.3-0.1-2.7,0.4-3.6,1.5c-0.6,0.6-0.9,1.4-1,2.3c-0.3,2.4,1.7,4.7,4.1,4.8c0.5,0,0.9,0,1.4-0.2
		c1.4-0.5,2.8-1.2,4.3-1.1c4.5,0.3,7.7,2.4,8.5,8.2C33.7,32.2,33.5,32.4,33.3,32.4z"/>
</g>
</svg>
